<svg width="50" height="51" viewBox="0 0 50 51" fill="none" xmlns="http://www.w3.org/2000/svg">
<path d="M25 5.00625C31.675 5.00625 32.4667 5.03125 35.1042 5.15208C41.8792 5.46042 45.0437 8.675 45.3521 15.4C45.4729 18.0354 45.4958 18.8271 45.4958 25.5021C45.4958 32.1792 45.4708 32.9687 45.3521 35.6042C45.0417 42.3229 41.8854 45.5437 35.1042 45.8521C32.4667 45.9729 31.6792 45.9979 25 45.9979C18.325 45.9979 17.5333 45.9729 14.8979 45.8521C8.10625 45.5417 4.95833 42.3125 4.65 35.6021C4.52917 32.9667 4.50417 32.1771 4.50417 25.5C4.50417 18.825 4.53125 18.0354 4.65 15.3979C4.96042 8.675 8.11667 5.45833 14.8979 5.15C17.5354 5.03125 18.325 5.00625 25 5.00625ZM25 0.5C18.2104 0.5 17.3604 0.529167 14.6937 0.65C5.61458 1.06667 0.56875 6.10417 0.152083 15.1917C0.0291667 17.8604 0 18.7104 0 25.5C0 32.2896 0.0291667 33.1417 0.15 35.8083C0.566667 44.8875 5.60417 49.9333 14.6917 50.35C17.3604 50.4708 18.2104 50.5 25 50.5C31.7896 50.5 32.6417 50.4708 35.3083 50.35C44.3792 49.9333 49.4375 44.8958 49.8479 35.8083C49.9708 33.1417 50 32.2896 50 25.5C50 18.7104 49.9708 17.8604 49.85 15.1937C49.4417 6.12292 44.3979 1.06875 35.3104 0.652083C32.6417 0.529167 31.7896 0.5 25 0.5ZM25 12.6625C17.9104 12.6625 12.1625 18.4104 12.1625 25.5C12.1625 32.5896 17.9104 38.3396 25 38.3396C32.0896 38.3396 37.8375 32.5917 37.8375 25.5C37.8375 18.4104 32.0896 12.6625 25 12.6625ZM25 33.8333C20.3979 33.8333 16.6667 30.1042 16.6667 25.5C16.6667 20.8979 20.3979 17.1667 25 17.1667C29.6021 17.1667 33.3333 20.8979 33.3333 25.5C33.3333 30.1042 29.6021 33.8333 25 33.8333ZM38.3458 9.15625C36.6875 9.15625 35.3437 10.5 35.3437 12.1562C35.3437 13.8125 36.6875 15.1562 38.3458 15.1562C40.0021 15.1562 41.3437 13.8125 41.3437 12.1562C41.3437 10.5 40.0021 9.15625 38.3458 9.15625Z" fill="#F3F3F3"/>
</svg>
