<svg width="50" height="51" viewBox="0 0 50 51" fill="none" xmlns="http://www.w3.org/2000/svg">
<g clip-path="url(#clip0_326_37)">
<path d="M39.5833 0.5H10.4167C4.66458 0.5 0 5.16458 0 10.9167V40.0833C0 45.8354 4.66458 50.5 10.4167 50.5H39.5833C45.3375 50.5 50 45.8354 50 40.0833V10.9167C50 5.16458 45.3375 0.5 39.5833 0.5ZM16.6667 40.0833H10.4167V17.1667H16.6667V40.0833ZM13.5417 14.525C11.5292 14.525 9.89583 12.8792 9.89583 10.85C9.89583 8.82083 11.5292 7.175 13.5417 7.175C15.5542 7.175 17.1875 8.82083 17.1875 10.85C17.1875 12.8792 15.5562 14.525 13.5417 14.525ZM41.6667 40.0833H35.4167V28.4083C35.4167 21.3917 27.0833 21.9229 27.0833 28.4083V40.0833H20.8333V17.1667H27.0833V20.8437C29.9917 15.4563 41.6667 15.0583 41.6667 26.0021V40.0833Z" fill="#F3F3F3"/>
</g>
<defs>
<clipPath id="clip0_326_37">
<rect width="50" height="50" fill="white" transform="translate(0 0.5)"/>
</clipPath>
</defs>
</svg>
