<svg width="102" height="70" viewBox="0 0 102 70" fill="none" xmlns="http://www.w3.org/2000/svg">
<g clip-path="url(#clip0_319_78)">
<path d="M83.9998 35.0552C83.9998 44.4576 79.52 52.8935 72.4624 58.5888L85.8651 70.0069C95.7868 61.2534 101.992 48.8274 101.992 35.0552C101.992 21.283 95.7427 8.76035 85.7476 0L72.2715 11.3629C79.4392 17.0582 83.9998 25.5631 83.9998 35.0483" fill="#01794D"/>
<path d="M15.951 69.8482L29.4125 58.4921C22.4284 52.7969 18 44.4093 18 35.0622C18 25.715 22.5092 17.1618 29.6034 11.4734L16.0685 0.158813C6.1836 8.90536 0 21.3176 0 35.0553C0 48.7929 6.13219 61.1016 15.951 69.8482Z" fill="#01794D"/>
<path d="M50.9957 48.1578C58.7435 48.1578 65.0226 42.2554 65.0226 34.9724C65.0226 27.6894 58.7435 21.787 50.9957 21.787C43.2478 21.787 36.9688 27.6894 36.9688 34.9724C36.9688 42.2554 43.2478 48.1578 50.9957 48.1578Z" fill="#01794D"/>
</g>
<defs>
<clipPath id="clip0_319_78">
<rect width="102" height="70" fill="white"/>
</clipPath>
</defs>
</svg>
