<svg width="103" height="74" viewBox="0 0 103 74" fill="none" xmlns="http://www.w3.org/2000/svg">
<g clip-path="url(#clip0_224_771)">
<rect width="103" height="74" fill="white"/>
<path d="M84.8237 37.0584C84.8237 46.998 80.3 55.916 73.1733 61.9367L86.7074 74.0073C96.7263 64.7536 102.993 51.6176 102.993 37.0584C102.993 22.4992 96.6818 9.26095 86.5887 0L72.9805 12.0122C80.2184 18.0329 84.8237 27.0239 84.8237 37.0511" fill="#D9D9D9" fill-opacity="0.58"/>
<path d="M16.1074 73.8396L29.7008 61.8346C22.6483 55.8139 18.1765 46.9471 18.1765 37.0658C18.1765 27.1845 22.7299 18.1425 29.8937 12.1291L16.2261 0.167969C6.24422 9.41432 0 22.5358 0 37.0585C0 51.5812 6.19231 64.5932 16.1074 73.8396Z" fill="#D9D9D9" fill-opacity="0.58"/>
<path d="M51.4965 50.9095C59.3203 50.9095 65.6609 44.6698 65.6609 36.9706C65.6609 29.2714 59.3203 23.0317 51.4965 23.0317C43.6727 23.0317 37.332 29.2714 37.332 36.9706C37.332 44.6698 43.6727 50.9095 51.4965 50.9095Z" fill="#D9D9D9" fill-opacity="0.58"/>
</g>
<defs>
<clipPath id="clip0_224_771">
<rect width="103" height="74" fill="white"/>
</clipPath>
</defs>
</svg>
