<?xml version="1.0" encoding="UTF-8" standalone="no"?>
<svg
   id="Calque_1"
   version="1.1"
   viewBox="0 0 439.3 56.5"
   sodipodi:docname="cfa65087-1bea-4154-95d3-1c2f2d57ce6e.svgz"
   xmlns:inkscape="http://www.inkscape.org/namespaces/inkscape"
   xmlns:sodipodi="http://sodipodi.sourceforge.net/DTD/sodipodi-0.dtd"
   xmlns="http://www.w3.org/2000/svg"
   xmlns:svg="http://www.w3.org/2000/svg">
  <sodipodi:namedview
     id="namedview6"
     pagecolor="#ffffff"
     bordercolor="#000000"
     borderopacity="0.25"
     inkscape:showpageshadow="2"
     inkscape:pageopacity="0.0"
     inkscape:pagecheckerboard="0"
     inkscape:deskcolor="#d1d1d1" />
  <!-- Generator: Adobe Illustrator 29.6.0, SVG Export Plug-In . SVG Version: 2.1.1 Build 207)  -->
  <defs
     id="defs1">
    <style
       id="style1">
      .st0 {
        fill: #fff;
      }
    </style>
  </defs>
  <path
     class="st0"
     d="M91.6,53.2h13.7v-16c0-4.2,0-8.5-.1-12.8h.1c2.5,3.6,4.9,7,7.7,10.7l13.3,18.1h13.3V3.2h-13.7v16c0,4.2,0,8.5.1,12.8h-.1c-2.5-3.6-4.9-7-7.7-10.7l-13.3-18.1h-13.3v50ZM55.1,32.5l1.7-4.6c1-2.9,2.2-6.4,3.2-9.5h.1c.9,3,2.1,6.5,3,9.3l1.7,4.8h-9.7ZM32.9,53.2h14.7l3.7-10.2h17.1l3.5,10.2h15.5L67.6,3.2h-14.7l-19.9,50Z"
     id="path1" />
  <path
     class="st0"
     d="M407,32.5l1.7-4.6c1-2.9,2.2-6.4,3.2-9.5h.1c.9,3,2.1,6.5,3,9.3l1.7,4.8h-9.7ZM384.8,53.2h14.7l3.7-10.2h17.1l3.5,10.2h15.5l-19.9-50h-14.7l-19.9,50ZM329.6,53.2h13.7v-16.3c0-3.9,0-8.4-.1-11.8h.1c2.1,3.2,4.3,6.4,6.6,9.6l6,8.4,5.9-8.4c2.2-3.1,4.5-6.4,6.6-9.6h.1c0,3.5-.1,7.9-.1,11.8v16.3h14.2V3.2h-13.5l-12.9,18.2-12.9-18.2h-13.7v50ZM295.8,32.5l1.7-4.6c1-2.9,2.2-6.4,3.2-9.5h.1c.9,3,2.1,6.5,3,9.3l1.7,4.8h-9.7ZM273.6,53.2h14.7l3.7-10.2h17.1l3.5,10.2h15.5l-19.9-50h-14.7l-19.9,50ZM242.8,25.1v-10.6h4.6c2.5,0,3.9.3,5,1.2,1.2.8,1.8,2.4,1.8,4.1s-.6,3.2-1.8,4.1c-1.2.8-2.6,1.2-5,1.2h-4.6ZM228.7,53.2h14.1v-18h3.3l10.4,18h15.8l-12.6-20.2c5.3-2.6,8.5-7.5,8.5-13.8s-2.3-9.5-5.9-12.2c-3.7-2.7-8.1-3.8-13.5-3.8h-20.1v50Z"
     id="path2" />
  <path
     class="st0"
     d="M14.2,26.4v-11.9h3.9c2.8,0,4.3.4,5.6,1.4,1.3,1,2,2.6,2,4.6s-.7,3.6-2,4.6c-1.3,1-2.8,1.4-5.6,1.4h-3.9ZM0,53.2h14.2v-15.7h5.1c5.8,0,10.5-1.2,14.4-4.1,3.9-2.9,6.3-7.3,6.3-13.1s-2.4-10.2-6.3-13.1c-3.9-2.9-8.6-4-14.4-4H0v50Z"
     id="path3" />
  <path
     class="st0"
     d="M209.1,28.3c0,7.6-3.4,14.4-8.7,19l10.2,9.2c7.5-7.1,12.2-17.1,12.2-28.2s-4.7-21.2-12.3-28.3l-10.2,9.2c5.4,4.6,8.9,11.5,8.9,19.1"
     id="path4" />
  <path
     class="st0"
     d="M157.5,56.3l10.2-9.2c-5.3-4.6-8.7-11.4-8.7-18.9s3.4-14.4,8.8-19L157.6.1c-7.5,7.1-12.2,17.1-12.2,28.1s4.6,21,12.1,28.1"
     id="path5" />
  <path
     class="st0"
     d="M184.1,38.8c5.9,0,10.6-4.8,10.6-10.6s-4.8-10.6-10.6-10.6-10.6,4.8-10.6,10.6,4.8,10.6,10.6,10.6"
     id="path6" />
</svg>
