<svg width="440" height="57" viewBox="0 0 440 57" fill="none" xmlns="http://www.w3.org/2000/svg">
<g clip-path="url(#clip0_326_53)">
<path d="M91.6004 53.2002H105.3V37.2002C105.3 33.0002 105.3 28.7002 105.2 24.4002H105.3C107.8 28.0002 110.2 31.4002 113 35.1002L126.3 53.2002H139.6V3.2002H125.9V19.2002C125.9 23.4002 125.9 27.7002 126 32.0002H125.9C123.4 28.4002 121 25.0002 118.2 21.3002L104.9 3.2002H91.6004V53.2002ZM55.1004 32.5002L56.8004 27.9002C57.8004 25.0002 59.0004 21.5002 60.0004 18.4002H60.1004C61.0004 21.4002 62.2004 24.9002 63.1004 27.7002L64.8004 32.5002H55.1004ZM32.9004 53.2002H47.6004L51.3004 43.0002H68.4004L71.9004 53.2002H87.4004L67.6004 3.2002H52.9004L33.0004 53.2002H32.9004Z" fill="black"/>
<path d="M406.999 32.5002L408.699 27.9002C409.699 25.0002 410.899 21.5002 411.899 18.4002H411.999C412.899 21.4002 414.099 24.9002 414.999 27.7002L416.699 32.5002H406.999ZM384.799 53.2002H399.499L403.199 43.0002H420.299L423.799 53.2002H439.299L419.399 3.2002H404.699L384.799 53.2002ZM329.599 53.2002H343.299V36.9002C343.299 33.0002 343.299 28.5002 343.199 25.1002H343.299C345.399 28.3002 347.599 31.5002 349.899 34.7002L355.899 43.1002L361.799 34.7002C363.999 31.6002 366.299 28.3002 368.399 25.1002H368.499C368.499 28.6002 368.399 33.0002 368.399 36.9002V53.2002H382.599V3.2002H369.099L356.199 21.4002L343.299 3.2002H329.599V53.2002ZM295.799 32.5002L297.499 27.9002C298.499 25.0002 299.699 21.5002 300.699 18.4002H300.799C301.699 21.4002 302.899 24.9002 303.799 27.7002L305.499 32.5002H295.799ZM273.599 53.2002H288.299L291.999 43.0002H309.099L312.599 53.2002H328.099L308.199 3.2002H293.499L273.599 53.2002ZM242.799 25.1002V14.5002H247.399C249.899 14.5002 251.299 14.8002 252.399 15.7002C253.599 16.5002 254.199 18.1002 254.199 19.8002C254.199 21.5002 253.599 23.0002 252.399 23.9002C251.199 24.7002 249.799 25.1002 247.399 25.1002H242.799ZM228.699 53.2002H242.799V35.2002H246.099L256.499 53.2002H272.299L259.699 33.0002C264.999 30.4002 268.199 25.5002 268.199 19.2002C268.199 12.9002 265.899 9.7002 262.299 7.0002C258.599 4.3002 254.199 3.2002 248.799 3.2002H228.699V53.2002Z" fill="black"/>
<path d="M14.2 26.4002V14.5002H18.1C20.9 14.5002 22.4 14.9002 23.7 15.9002C25 16.9002 25.7 18.5002 25.7 20.5002C25.7 22.5002 25 24.1002 23.7 25.1002C22.4 26.1002 20.9 26.5002 18.1 26.5002H14.2V26.4002ZM0 53.2002H14.2V37.5002H19.3C25.1 37.5002 29.8 36.3002 33.7 33.4002C37.6 30.5002 40 26.1002 40 20.3002C40 14.5002 37.6 10.1002 33.7 7.2002C29.8 4.30019 25.1 3.2002 19.3 3.2002H0V53.2002Z" fill="black"/>
<path d="M209.101 28.3C209.101 35.9 205.701 42.7 200.401 47.3L210.601 56.5C218.101 49.4 222.801 39.4 222.801 28.3C222.801 17.2 218.101 7.1 210.501 0L200.301 9.2C205.701 13.8 209.201 20.7 209.201 28.3" fill="black"/>
<path d="M157.5 56.2996L167.7 47.0996C162.4 42.4996 159 35.6996 159 28.1996C159 20.6996 162.4 13.7996 167.8 9.19961L157.6 0.0996094C150.1 7.19961 145.4 17.1996 145.4 28.1996C145.4 39.1996 150 49.1996 157.5 56.2996Z" fill="black"/>
<path d="M184.1 38.7996C190 38.7996 194.7 33.9996 194.7 28.1996C194.7 22.3996 189.9 17.5996 184.1 17.5996C178.3 17.5996 173.5 22.3996 173.5 28.1996C173.5 33.9996 178.3 38.7996 184.1 38.7996Z" fill="black"/>
</g>
<defs>
<clipPath id="clip0_326_53">
<rect width="439.3" height="56.5" fill="white"/>
</clipPath>
</defs>
</svg>
