<svg width="57" height="43" viewBox="0 0 57 43" fill="none" xmlns="http://www.w3.org/2000/svg">
<g clip-path="url(#clip0_224_30)">
<path d="M46.9408 21.5339C46.9408 27.3097 44.4373 32.4917 40.4934 35.9902L47.9832 43.0042C53.5276 37.6271 56.9955 29.994 56.9955 21.5339C56.9955 13.0739 53.503 5.38136 47.9175 0L40.3867 6.98008C44.3922 10.4786 46.9408 15.7031 46.9408 21.5297" fill="white"/>
<path d="M8.91382 42.9068L16.4364 35.931C12.5335 32.4325 10.0588 27.2801 10.0588 21.5383C10.0588 15.7965 12.5787 10.5423 16.5431 7.04805L8.97948 0.0976562C3.45554 5.47054 0 13.0952 0 21.534C0 29.9729 3.42681 37.5339 8.91382 42.9068Z" fill="white"/>
<path d="M28.4987 29.5825C32.8284 29.5825 36.3373 25.9568 36.3373 21.4829C36.3373 17.009 32.8284 13.3833 28.4987 13.3833C24.169 13.3833 20.6602 17.009 20.6602 21.4829C20.6602 25.9568 24.169 29.5825 28.4987 29.5825Z" fill="white"/>
</g>
<defs>
<clipPath id="clip0_224_30">
<rect width="57" height="43" fill="white"/>
</clipPath>
</defs>
</svg>
