<?xml version="1.0" encoding="UTF-8"?>
<svg id="Calque_1" data-name="Calque 1" xmlns="http://www.w3.org/2000/svg" viewBox="0 0 138.89 101.4">
  <path d="M114.38,50.78c0,13.62-6.1,25.84-15.71,34.09l18.25,16.54c13.51-12.68,21.96-30.68,21.96-50.63S130.37,12.69,116.76,0l-18.35,16.46c9.76,8.25,15.97,20.57,15.97,34.31"/>
  <path d="M21.72,101.18l18.33-16.45c-9.51-8.25-15.54-20.4-15.54-33.94s6.14-25.93,15.8-34.17L21.88.23C8.42,12.9,0,30.88,0,50.78s8.35,37.73,21.72,50.4"/>
  <path d="M69.44,69.76c10.55,0,19.1-8.55,19.1-19.1s-8.55-19.1-19.1-19.1-19.1,8.55-19.1,19.1,8.55,19.1,19.1,19.1"/>
</svg>