<svg width="199" height="77" viewBox="0 0 199 77" fill="none" xmlns="http://www.w3.org/2000/svg">
<path d="M130.026 76.1371H149.467V51.9913C149.467 45.6425 149.372 39.1923 149.276 32.7422H149.467C153.003 38.1567 156.433 43.256 160.361 48.8731L179.208 76.1371H198.15V0.79541H178.709V24.9412C178.709 31.29 178.804 37.7402 178.9 44.1903H178.709C175.173 38.7758 171.744 33.6765 167.815 28.0593L148.968 0.79541H130.026V76.1483V76.1371ZM78.296 44.922L80.6531 37.9428C82.129 33.5752 83.796 28.3633 85.1657 23.6805H85.3568C86.631 28.262 88.298 33.4626 89.6783 37.7289L92.0355 44.9108H78.296V44.922ZM46.7822 76.1371H67.6888L72.8915 60.7378H97.2382L102.239 76.1371H124.229L95.9641 0.79541H75.0575L46.7822 76.1483V76.1371Z" fill="white"/>
<path d="M20.227 35.759V17.8607H25.8226C29.7512 17.8607 31.9066 18.4798 33.7754 19.9432C35.6441 21.3954 36.6209 23.8944 36.6209 26.8099C36.6209 29.7254 35.6335 32.2244 33.7754 33.6765C31.9066 35.1399 29.7512 35.759 25.8226 35.759H20.227ZM0 76.1371H20.227V52.5091H27.4896C35.7397 52.5091 42.4077 50.7418 47.9077 46.3742C53.4078 42.0065 56.8373 35.3425 56.8373 26.596C56.8373 17.8495 53.3971 11.1967 47.9077 6.81782C42.4077 2.45018 35.7397 0.78418 27.4896 0.78418H0V76.1371Z" fill="white"/>
</svg>
