<svg width="300" height="77" viewBox="0 0 300 77" fill="none" xmlns="http://www.w3.org/2000/svg">
<path d="M254.057 44.9221L256.414 37.9428C257.89 33.5752 259.557 28.3633 260.927 23.6805H261.118C262.392 28.262 264.059 33.4626 265.439 37.729L267.796 44.9108H254.057V44.9221ZM222.543 76.1371H243.45L248.652 60.7378H272.999L278.011 76.1371H300L271.725 0.78418H250.818L222.543 76.1371ZM144.12 76.1371H163.561V51.5748C163.561 45.6425 163.465 38.9785 163.37 33.7778H163.561C166.502 38.562 169.645 43.4587 172.883 48.2428L181.42 60.9405L189.861 48.2428C193.004 43.56 196.243 38.562 199.184 33.7778H199.375C199.279 38.9785 199.184 45.6425 199.184 51.5748V76.1371H219.411V0.795437H200.171L181.909 28.2733L163.55 0.795437H144.109V76.1484L144.12 76.1371ZM96.0952 44.9221L98.4523 37.9428C99.9282 33.5752 101.595 28.3633 102.965 23.6805H103.156C104.43 28.262 106.097 33.4626 107.477 37.729L109.835 44.9108H96.0952V44.9221ZM64.592 76.1371H85.4986L90.7013 60.7378H115.048L120.049 76.1371H142.039L113.763 0.78418H92.8567L64.5814 76.1371H64.592ZM20.804 33.7891V17.8607H27.2809C30.8167 17.8607 32.781 18.3785 34.448 19.628C36.115 20.8775 36.9963 23.2752 36.9963 25.8756C36.9963 28.4759 36.115 30.7723 34.448 32.0105C32.781 33.26 30.8167 33.7778 27.2809 33.7778H20.804V33.7891ZM0.778809 76.1371H20.804V49.0758H25.5184L40.3409 76.1371H62.8189L44.949 45.7438C52.5089 41.7927 57.0215 34.4983 57.0215 24.93C57.0215 16.8138 53.7831 10.5663 48.5803 6.51389C43.3776 2.45018 37.0918 0.795437 29.3408 0.795437H0.778809V76.1484V76.1371Z" fill="white"/>
</svg>
