<svg width="50" height="49" viewBox="0 0 50 49" fill="none" xmlns="http://www.w3.org/2000/svg">
<path d="M44.0476 0.5H5.95238C2.67024 0.5 0 3.06343 0 6.21429V42.7857C0 45.9366 2.67024 48.5 5.95238 48.5H44.0476C47.3298 48.5 50 45.9366 50 42.7857V6.21429C50 3.06343 47.3298 0.5 44.0476 0.5ZM39.2929 21.4406C39.0226 21.4646 38.7488 21.4806 38.4714 21.4806C35.3488 21.4806 32.6048 19.9389 31.0083 17.6086C31.0083 23.7217 31.0083 30.6771 31.0083 30.7937C31.0083 36.1754 26.4631 40.5389 20.8571 40.5389C15.2512 40.5389 10.706 36.1754 10.706 30.7937C10.706 25.412 15.2512 21.0486 20.8571 21.0486C21.069 21.0486 21.2762 21.0669 21.4845 21.0794V25.8817C21.2762 25.8577 21.0714 25.8211 20.8571 25.8211C17.9952 25.8211 15.6762 28.0474 15.6762 30.7949C15.6762 33.5423 17.9952 35.7686 20.8571 35.7686C23.719 35.7686 26.2464 33.604 26.2464 30.8566C26.2464 30.748 26.2964 8.46343 26.2964 8.46343H31.0774C31.5274 12.5674 34.9786 15.8063 39.2929 16.1034V21.4406Z" fill="white"/>
</svg>
